# xmcd
#
# Track frame offsets:
#	150
#	16354
#	32376
#	47602
#	62930
#	83893
#	102175
#	121777
#	139938
#	156380
#	177289
#	197696
#	219379
#	239669
#
# Disc length: 3450 seconds
#
# Revision: 1
# Processed by: cddbd v1.4PL0 Copyright (c) Steve Scherf et al.
# Submitted via: audiograbber 1.81.02
#
DISCID=be0d780e
DTITLE=Various Artist - Romantic Stars CD1
DYEAR=2003
DGENRE=Ballad
TTITLE0=Ronan Keating - If Tomorrow Never Comes
TTITLE1=No Angels - Still In Love With You
TTITLE2=Oleta Adams - Never New Love
TTITLE3=Texas - When We Are Together
TTITLE4=Wet Wet Wet - Shed A Tear
TTITLE5=Kim Wilde - Four Letter Word
TTITLE6=Lisa Stansfield - The real Thing
TTITLE7=Elton John - Your Song
TTITLE8=Paul Weller - You Do Something To Me
TTITLE9=Cutting Crew - I Just died In Your Arms
TTITLE10=Billie Myers - Kiss The Rain
TTITLE11=Black - Wonderful Life
TTITLE12=Climie Fisher - Love Changes (Everything)
TTITLE13=T. Pau - Heart And Soul
EXTD=
EXTT0=
EXTT1=
EXTT2=
EXTT3=
EXTT4=
EXTT5=
EXTT6=
EXTT7=
EXTT8=
EXTT9=
EXTT10=
EXTT11=
EXTT12=
EXTT13=
PLAYORDER=
